<svg width="36" height="36" viewBox="0 0 36 36" fill="none" xmlns="http://www.w3.org/2000/svg">
<path d="M20.1231 18L26.4871 24.364C27.0729 24.9497 27.0729 25.8995 26.4871 26.4853C25.9013 27.0711 24.9516 27.0711 24.3658 26.4853L18.0018 20.1213L11.6379 26.4853C11.0521 27.0711 10.1023 27.0711 9.51653 26.4853C8.93074 25.8995 8.93074 24.9497 9.51653 24.364L15.8805 18L9.51653 11.636C8.93074 11.0503 8.93074 10.1005 9.51653 9.51472C10.1023 8.92893 11.0521 8.92893 11.6379 9.51472L18.0018 15.8787L24.3658 9.51472C24.9516 8.92893 25.9013 8.92893 26.4871 9.51472C27.0729 10.1005 27.0729 11.0503 26.4871 11.636L20.1231 18Z" fill="#98A2B3"/>
</svg>
