<svg width="24" height="24" viewBox="0 0 24 24" fill="none" xmlns="http://www.w3.org/2000/svg">
<path fill-rule="evenodd" clip-rule="evenodd" d="M13.1016 3.89972H10.6016C9.60662 3.89972 8.91454 3.90042 8.37606 3.94442C7.84808 3.98755 7.54751 4.06779 7.32119 4.18311C6.83197 4.43238 6.43422 4.83013 6.18495 5.31935C6.06963 5.54567 5.9894 5.84624 5.94626 6.37422C5.90226 6.9127 5.90156 7.60478 5.90156 8.59972V15.3997C5.90156 16.3947 5.90226 17.0867 5.94626 17.6252C5.9894 18.1532 6.06963 18.4538 6.18495 18.6801C6.43422 19.1693 6.83197 19.5671 7.32119 19.8163C7.54751 19.9317 7.84808 20.0119 8.37606 20.055C8.91454 20.099 9.60662 20.0997 10.6016 20.0997H14.4016C15.3965 20.0997 16.0886 20.099 16.6271 20.055C17.155 20.0119 17.4556 19.9317 17.6819 19.8163C18.1712 19.5671 18.5689 19.1693 18.8182 18.6801C18.9335 18.4538 19.0137 18.1532 19.0569 17.6252C19.1009 17.0867 19.1016 16.3947 19.1016 15.3997V9.89972H17.2016L17.1662 9.89972C16.6363 9.89974 16.1851 9.89975 15.8147 9.86948C15.4255 9.83769 15.0469 9.76805 14.685 9.58364C14.1393 9.30561 13.6957 8.86196 13.4176 8.31629C13.2332 7.95436 13.1636 7.57577 13.1318 7.1866C13.1015 6.81617 13.1015 6.36499 13.1016 5.83512L13.1016 5.79972V3.89972ZM18.3288 8.09972L14.9016 4.67251V5.79972C14.9016 6.37463 14.9023 6.75168 14.9258 7.04003C14.9485 7.31788 14.9879 7.43322 15.0215 7.49911C15.1269 7.70609 15.2952 7.87437 15.5022 7.97983C15.5681 8.0134 15.6834 8.05276 15.9613 8.07546C16.2496 8.09902 16.6267 8.09972 17.2016 8.09972H18.3288ZM14.4405 2.16603C14.161 2.09894 13.8743 2.09929 13.5747 2.09966L13.5075 2.09972H10.6016H10.5632C9.61566 2.09971 8.8499 2.09971 8.22948 2.1504C7.59019 2.20263 7.02637 2.31313 6.504 2.57929C5.67609 3.00113 5.00298 3.67425 4.58113 4.50216C4.31498 5.02453 4.20447 5.58835 4.15224 6.22764C4.10155 6.84806 4.10155 7.61381 4.10156 8.56131V8.59972V15.3997V15.4381C4.10155 16.3856 4.10155 17.1514 4.15224 17.7718C4.20447 18.4111 4.31498 18.9749 4.58113 19.4973C5.00298 20.3252 5.67609 20.9983 6.504 21.4202C7.02637 21.6863 7.59019 21.7968 8.22948 21.849C8.8499 21.8997 9.61565 21.8997 10.5632 21.8997H10.6016H14.4016H14.44C15.3875 21.8997 16.1532 21.8997 16.7736 21.849C17.4129 21.7968 17.9768 21.6863 18.4991 21.4202C19.327 20.9983 20.0001 20.3252 20.422 19.4973C20.6882 18.9749 20.7987 18.4111 20.8509 17.7718C20.9016 17.1514 20.9016 16.3856 20.9016 15.4381V15.3997V9.49383L20.9016 9.42663C20.902 9.12701 20.9023 8.84025 20.8353 8.56077C20.7765 8.31589 20.6795 8.08178 20.5479 7.86704C20.3977 7.62199 20.1947 7.41947 19.9826 7.20787L19.935 7.16038L15.8409 3.06627L15.7934 3.01871C15.5818 2.80658 15.3793 2.60356 15.1342 2.45339C14.9195 2.3218 14.6854 2.22483 14.4405 2.16603Z" fill="#98A2B3"/>
</svg>
