<svg width="136" height="40" viewBox="0 0 136 40" fill="none" xmlns="http://www.w3.org/2000/svg">
<path d="M130.963 40H5.03704C2.2667 40 0 37.75 0 35V5.00002C0 2.25 2.26666 0 5.03704 0H130.963C133.733 0 136 2.25 136 5.00002V35C136 37.75 133.733 40 130.963 40" fill="black"/>
<path d="M130.963 0H5.03704C2.2667 0 0 2.25 0 5.00002V35C0 37.75 2.26666 40 5.03704 40H130.963C133.733 40 136 37.75 136 35V5.00002C136 2.25 133.733 0 130.963 0H130.963ZM130.963 0.799975C133.296 0.799975 135.194 2.68441 135.194 5.00002V35C135.194 37.316 133.296 39.2004 130.963 39.2004H5.03704C2.70431 39.2004 0.805934 37.316 0.805934 35V5.00002C0.805934 2.68441 2.70427 0.80002 5.03704 0.80002H130.963" fill="#A6A6A6"/>
<path d="M47.7716 10.2431C47.7716 11.0809 47.5216 11.748 47.021 12.2457C46.4524 12.8375 45.7114 13.1337 44.8004 13.1337C43.9279 13.1337 43.1862 12.8337 42.5762 12.2328C41.9651 11.6325 41.6602 10.8879 41.6602 9.99965C41.6602 9.11096 41.9651 8.36689 42.5762 7.76601C43.1862 7.16567 43.9279 6.86523 44.8004 6.86523C45.2333 6.86523 45.6477 6.94928 46.0412 7.11687C46.4347 7.28486 46.7503 7.50786 46.9864 7.78714L46.4551 8.31485C46.055 7.84026 45.504 7.60314 44.8004 7.60314C44.1641 7.60314 43.614 7.82507 43.1496 8.26919C42.6852 8.71376 42.4531 9.29028 42.4531 9.99965C42.4531 10.7091 42.6852 11.2855 43.1496 11.7302C43.614 12.1743 44.1641 12.3962 44.8004 12.3962C45.4753 12.3962 46.0381 12.1731 46.4886 11.7262C46.7811 11.4352 46.9502 11.0305 46.9954 10.511H44.8003V9.79026H47.7294C47.7577 9.94698 47.7715 10.0974 47.7715 10.2431" fill="white"/>
<path d="M47.7707 10.2434H47.6699C47.6691 11.0622 47.4282 11.6981 46.9489 12.1754L46.9478 12.1762L46.9474 12.1771C46.3968 12.7484 45.6892 13.0328 44.7994 13.0341C43.9503 13.0328 43.2396 12.7453 42.6461 12.1625C42.0539 11.5786 41.7611 10.8656 41.76 10C41.7611 9.13405 42.0539 8.42153 42.6461 7.83795C43.2396 7.25473 43.9503 6.96683 44.7994 6.96562C45.2194 6.96562 45.6192 7.04697 46.0005 7.20903C46.3822 7.37235 46.6837 7.58636 46.9084 7.85206L46.9855 7.78753L46.9143 7.71683L46.383 8.24491L46.4542 8.31524L46.5318 8.25124C46.113 7.75315 45.5252 7.50205 44.7995 7.50354C44.1396 7.50273 43.5591 7.73679 43.079 8.19776C42.5942 8.66022 42.3507 9.26919 42.3515 10C42.3507 10.7309 42.5942 11.3399 43.079 11.8024C43.5591 12.2633 44.1396 12.4974 44.7994 12.4965C45.4967 12.4978 46.091 12.2629 46.5589 11.7973C46.8714 11.4863 47.0485 11.0556 47.0949 10.5199L47.1043 10.4114H44.9002V9.89065H47.7285V9.79065L47.6293 9.80823C47.6568 9.95986 47.6698 10.1039 47.6698 10.2434H47.8713C47.8713 10.0915 47.8571 9.93523 47.8276 9.77277L47.8127 9.69066H44.6988V10.6113H46.9945V10.5114L46.8942 10.5028C46.8498 11.0059 46.6884 11.3849 46.4165 11.656C45.9836 12.0841 45.4524 12.2953 44.7995 12.2966C44.1868 12.2957 43.667 12.0864 43.2188 11.6586C42.7749 11.2325 42.5541 10.6883 42.5529 10C42.5541 9.31175 42.7749 8.76763 43.2188 8.34144C43.667 7.91373 44.1868 7.70434 44.7995 7.70353C45.4807 7.70515 45.9951 7.92856 46.3772 8.37973L46.448 8.46333L47.0568 7.85827L47.1221 7.79346L47.0626 7.72344C46.8151 7.43055 46.4853 7.19806 46.08 7.02548C45.6739 6.85237 45.2454 6.76563 44.7995 6.76563C43.9039 6.76486 43.131 7.07735 42.5041 7.69575C41.8749 8.31295 41.5577 9.08874 41.5586 10C41.5577 10.9109 41.8749 11.6872 42.5045 12.3047C43.131 12.9227 43.9039 13.2349 44.7995 13.2341C45.7322 13.2349 46.5058 12.9274 47.093 12.3152L47.0201 12.2461L47.0913 12.3169C47.6132 11.7993 47.8721 11.1001 47.8714 10.2434H47.7706H47.7707ZM52.4141 7.73715H49.6614V9.63956H52.1438V10.3605H49.6614V12.2629H52.4141V13H48.8854V7.00005H52.4141V7.73715Z" fill="white"/>
<path d="M52.4145 7.73749V7.63749H49.5612V9.7399H52.0435V10.2606L49.5611 10.2609V12.3633H52.3138V12.9004H48.9866V7.10038H52.3138V7.73749H52.4145V7.63749V7.73749H52.5153V6.90039H48.7852V13.1004H52.5153V12.1633H49.7626V10.4609H52.245V9.5399H49.7626V7.83748H52.5153V7.73749H52.4145ZM55.6898 13.0004H54.9126V7.73744H53.2244V7.00034H57.378V7.73744H55.6898V13.0003" fill="white"/>
<path d="M55.6872 13.0004V12.9004H55.0108V7.63749H53.3226V7.10043H57.2747V7.63749H55.5865V13.0004H55.6872V12.9004V13.0004H55.788V7.83749H57.4762V6.90039H53.1211V7.83744H54.8093V13.1003H55.788V13.0003H55.6872V13.0004ZM60.3807 13.0004V7.00034H61.1572V13.0003H60.3807" fill="white"/>
<path d="M60.382 13.0004H60.4827V7.10038H61.0576V12.9004H60.382V13.0004H60.4827H60.382V13.1004H61.2591V6.90039H60.2812V13.1004H60.382V13.0004V13.0004ZM64.6036 13.0004H63.8264V7.73744H62.1383V7.00034H66.2918V7.73744H64.6036V13.0003" fill="white"/>
<path d="M64.6051 12.9997V12.8996H63.9286V7.63676H62.2405V7.0997H66.1926V7.63676H64.5044V12.9996H64.6051V12.8996V12.9996H64.7059V7.83675H66.3941V6.89966H62.0391V7.83671H63.7272V13.0996H64.7059V12.9996H64.6051V12.9997ZM70.2978 11.722C70.7452 12.1715 71.2926 12.3961 71.94 12.3961C72.5873 12.3961 73.135 12.1715 73.5817 11.722C74.0295 11.2724 74.2539 10.6977 74.2539 9.99965C74.2539 9.3017 74.0295 8.72697 73.5817 8.27737C73.135 7.82776 72.5873 7.60314 71.94 7.60314C71.2926 7.60314 70.7452 7.82776 70.2978 8.27737C69.8511 8.72697 69.6269 9.30165 69.6269 9.99965C69.6269 10.6977 69.8511 11.2724 70.2978 11.722ZM74.1562 12.2243C73.562 12.8308 72.823 13.1337 71.94 13.1337C71.0561 13.1337 70.3174 12.8308 69.7245 12.2243C69.1298 11.6183 68.8339 10.8767 68.8339 9.99965C68.8339 9.12264 69.1298 8.38083 69.7245 7.77505C70.3174 7.16833 71.0561 6.86523 71.94 6.86523C72.8183 6.86523 73.5553 7.16994 74.1523 7.77896C74.7485 8.38793 75.0468 9.12813 75.0468 9.99965C75.0468 10.8767 74.7492 11.6183 74.1562 12.2243Z" fill="white"/>
<path d="M70.2951 11.7224L70.2234 11.7927C70.6874 12.2602 71.2663 12.4978 71.9372 12.4966C72.6078 12.4978 73.1874 12.2602 73.6506 11.7927C74.1177 11.3246 74.3526 10.7192 74.3519 10C74.3525 9.28097 74.1177 8.67546 73.6506 8.20743C73.1874 7.73984 72.6078 7.50237 71.9372 7.50354C71.2663 7.50237 70.6874 7.73984 70.2234 8.20743C69.7575 8.67546 69.5222 9.28097 69.5234 10C69.5222 10.7191 69.7575 11.3246 70.2234 11.7927L70.2951 11.7224L70.3667 11.652C69.9394 11.2204 69.7257 10.6774 69.7249 10C69.7257 9.32276 69.9394 8.77977 70.3667 8.34805C70.798 7.91647 71.3131 7.70474 71.9372 7.70358C72.5609 7.70474 73.0772 7.91647 73.5074 8.34805C73.9355 8.77977 74.1492 9.32276 74.15 10C74.1492 10.6773 73.9355 11.2204 73.5074 11.652C73.0772 12.0837 72.561 12.2953 71.9372 12.2965C71.3131 12.2953 70.798 12.0837 70.3667 11.652L70.2951 11.7224ZM74.1535 12.2246L74.0815 12.1552C73.5039 12.7427 72.7975 13.0329 71.9372 13.0341C71.0766 13.0328 70.3702 12.7427 69.7937 12.1552L69.7909 12.152L69.7937 12.1552C69.2172 11.5657 68.9328 10.8548 68.932 10C68.9328 9.14533 69.2172 8.43443 69.7937 7.84496C70.3702 7.25743 71.0766 6.96684 71.9372 6.96567C72.7919 6.96684 73.4967 7.25865 74.0776 7.84923C74.656 8.44144 74.9421 9.15122 74.9434 10C74.9421 10.8548 74.6568 11.5657 74.0815 12.1552L74.1535 12.2246L74.226 12.2941C74.8366 11.6715 75.1455 10.8993 75.1448 10C75.1456 9.10596 74.8355 8.33524 74.2219 7.70987C73.6081 7.08202 72.8392 6.76455 71.9372 6.76563C71.0306 6.76455 70.2593 7.08054 69.6493 7.70596V7.70551C69.0374 8.32855 68.7297 9.10084 68.7305 10C68.7297 10.8993 69.0374 11.6715 69.6493 12.2945L69.652 12.2974L69.6493 12.2941C70.2593 12.9195 71.0306 13.2349 71.9372 13.2341C72.8435 13.2349 73.6148 12.9195 74.226 12.2941L74.1535 12.2246ZM76.1341 13.0001V7H77.0794L80.0169 11.6676H80.0504L80.0169 10.5113V7H80.7942V13H79.9835L76.9101 8.10622H76.8766L76.9101 9.2629V13H76.1341" fill="white"/>
<path d="M76.1371 13.0004H76.2378V7.10038H77.0264L79.964 11.768H80.1568L80.1206 10.5102V7.10043H80.6964V12.9004H80.0424L76.969 8.0066H76.7762L76.8123 9.2649V12.9004H76.1371V13.0004H76.2378H76.1371V13.1004H77.0138V9.26171L76.9804 8.1039L76.8796 8.1066V8.2066H76.9131V8.1066L76.8277 8.15977L79.9306 13.1004H80.8979V6.90039H79.9192V10.5129L79.9526 11.6707L80.0534 11.668V11.568H80.0199V11.668L80.1054 11.6149L77.1381 6.90039H76.0364V13.1004H76.1371V13.0004L76.1371 13.0004ZM107.73 30.0004H109.61V17.4992H107.73L107.73 30.0004ZM124.661 22.0024L122.507 27.4223H122.442L120.206 22.0024H118.181L121.534 29.5777L119.622 33.7914H121.584L126.752 22.0024L124.661 22.0024ZM114.001 28.5805C113.385 28.5805 112.526 28.275 112.526 27.5188C112.526 26.5539 113.596 26.184 114.519 26.184C115.346 26.184 115.734 26.3609 116.237 26.6024C116.09 27.7602 115.086 28.5805 114.001 28.5805ZM114.228 21.7289C112.867 21.7289 111.457 22.3242 110.874 23.643L112.542 24.3344C112.899 23.643 113.563 23.4176 114.26 23.4176C115.232 23.4176 116.22 23.9969 116.237 25.0262V25.1547C115.896 24.9617 115.168 24.6723 114.276 24.6723C112.478 24.6723 110.646 25.6531 110.646 27.4867C110.646 29.1594 112.121 30.2371 113.773 30.2371C115.038 30.2371 115.734 29.6742 116.172 29.0149H116.237V29.9797H118.051V25.1867C118.051 22.9676 116.383 21.7289 114.228 21.7289ZM102.61 23.5242H99.9367V19.2391H102.61C104.016 19.2391 104.814 20.3941 104.814 21.3816C104.814 22.3504 104.016 23.5242 102.61 23.5242ZM102.562 17.4992H98.0578V30.0004H99.9366V25.2641H102.562C104.645 25.2641 106.693 23.7668 106.693 21.3816C106.693 18.9965 104.645 17.4992 102.562 17.4992ZM78.0004 28.5828C76.7017 28.5828 75.6145 27.5035 75.6145 26.0211C75.6145 24.5231 76.7017 23.4274 78.0004 23.4274C79.2825 23.4274 80.2887 24.5231 80.2887 26.0211C80.2887 27.5035 79.2825 28.5828 78.0004 28.5828H78.0004ZM80.1588 22.7024H80.0939C79.6721 22.2031 78.8602 21.752 77.8379 21.752C75.6955 21.752 73.7319 23.6207 73.7319 26.0211C73.7319 28.4055 75.6955 30.2582 77.8379 30.2582C78.8602 30.2582 79.6721 29.807 80.0939 29.2918H80.1588V29.9039C80.1588 31.5313 79.2825 32.4012 77.8705 32.4012C76.7182 32.4012 76.0041 31.5793 75.7116 30.8867L74.0727 31.5633C74.5434 32.691 75.7931 34.0766 77.8705 34.0766C80.0777 34.0766 81.9442 32.7875 81.9442 29.6461V22.0098H80.1588V22.7024ZM83.2424 30.0004H85.1251V17.4988H83.2424V30.0004ZM87.9005 25.8762C87.8517 24.2328 89.1826 23.3953 90.14 23.3953C90.8871 23.3953 91.5198 23.7656 91.7303 24.2977L87.9005 25.8762ZM93.7432 24.4586C93.3865 23.5078 92.2985 21.752 90.0751 21.752C87.8679 21.752 86.0341 23.4758 86.0341 26.0051C86.0341 28.3895 87.8517 30.2582 90.286 30.2582C92.2502 30.2582 93.3865 29.066 93.857 28.3734L92.3962 27.4066C91.9096 28.1156 91.2438 28.5828 90.286 28.5828C89.3286 28.5828 88.6471 28.1477 88.2086 27.2941L93.9376 24.9418L93.7432 24.4586ZM48.0993 23.057V24.8613H52.4488C52.319 25.8762 51.9781 26.6172 51.4587 27.1328C50.826 27.7613 49.8359 28.4539 48.0993 28.4539C45.4213 28.4539 43.3278 26.3113 43.3278 23.6531C43.3278 20.9949 45.4213 18.852 48.0993 18.852C49.5439 18.852 50.5985 19.416 51.3776 20.141L52.6598 18.8684C51.5725 17.8371 50.1279 17.0477 48.0993 17.0477C44.4313 17.0477 41.3477 20.0121 41.3477 23.6531C41.3477 27.2941 44.4313 30.2582 48.0993 30.2582C50.0795 30.2582 51.5725 29.6141 52.7408 28.4055C53.9419 27.2133 54.3153 25.5379 54.3153 24.1848C54.3153 23.7656 54.283 23.3793 54.2177 23.057H48.0993ZM59.2603 28.5828C57.9616 28.5828 56.8417 27.5195 56.8417 26.0051C56.8417 24.4746 57.9616 23.4274 59.2603 23.4274C60.5584 23.4274 61.6784 24.4746 61.6784 26.0051C61.6784 27.5195 60.5584 28.5828 59.2603 28.5828ZM59.2603 21.752C56.8905 21.752 54.9591 23.5402 54.9591 26.0051C54.9591 28.4539 56.8905 30.2582 59.2603 30.2582C61.6296 30.2582 63.561 28.4539 63.561 26.0051C63.561 23.5402 61.6296 21.752 59.2603 21.752ZM68.6424 28.5828C67.3443 28.5828 66.2243 27.5195 66.2243 26.0051C66.2243 24.4746 67.3443 23.4274 68.6425 23.4274C69.9407 23.4274 71.0606 24.4746 71.0606 26.0051C71.0606 27.5195 69.9407 28.5828 68.6425 28.5828H68.6424ZM68.6424 21.752C66.2728 21.752 64.3418 23.5402 64.3418 26.0051C64.3418 28.4539 66.2728 30.2582 68.6425 30.2582C71.0119 30.2582 72.9433 28.4539 72.9433 26.0051C72.9433 23.5402 71.0119 21.752 68.6425 21.752H68.6424Z" fill="white"/>
<path d="M10.5867 7.61173C10.2487 7.91451 10.0469 8.41952 10.0469 9.08988V8.93834V31.0594V30.9137C10.0469 31.5328 10.22 32.0109 10.5131 32.3188L10.5879 32.3899V32.3902C10.8252 32.6028 11.1294 32.7156 11.4781 32.7153C11.8188 32.7153 12.2022 32.6074 12.6067 32.3798L27.2294 24.1325L32.2522 21.2993C32.8902 20.9395 33.2483 20.4755 33.3081 20.0028V20.0008C33.2483 19.527 32.8902 19.0633 32.2523 18.7036L27.229 15.8707L12.6068 7.62341C12.2013 7.39533 11.8177 7.28711 11.4761 7.28711C11.1278 7.28711 10.824 7.3996 10.5868 7.61173H10.5867Z" fill="#34C998"/>
<path d="M10.588 32.3887L10.5131 32.3176C10.22 32.0097 10.0469 31.5316 10.0469 30.9125V31.0582V8.94258V9.08864C10.0469 8.41828 10.2487 7.91326 10.5867 7.61049L23.0683 20L10.588 32.3887Z" fill="url(#paint0_linear_298_2704)"/>
<path d="M27.2275 24.1328L23.0664 20.0016L27.2271 15.8711L32.2503 18.7039C32.8882 19.0637 33.2463 19.5274 33.3062 20.0012V20.0031C33.2463 20.4758 32.8882 20.9399 32.2503 21.2996L27.2275 24.1328" fill="url(#paint1_linear_298_2704)"/>
<path d="M11.476 32.7148C11.1274 32.7152 10.8232 32.6023 10.5859 32.3898V32.3895L23.0663 20.0008L27.2274 24.132L12.6046 32.3793C12.2001 32.607 11.8167 32.7148 11.476 32.7148Z" fill="url(#paint2_linear_298_2704)"/>
<path d="M23.0676 20L10.5859 7.61051C10.8232 7.39838 11.127 7.28589 11.4753 7.28589C11.8169 7.28589 12.2005 7.39406 12.6059 7.62219L27.2283 15.8695L23.0675 20" fill="url(#paint3_linear_298_2704)"/>
<path d="M11.4771 32.8613C11.1284 32.8613 10.8238 32.7484 10.5865 32.5359L10.5861 32.5363C10.5851 32.5353 10.5841 32.5344 10.583 32.5336L10.5181 32.4707C10.516 32.4687 10.5141 32.4664 10.5117 32.4641L10.5865 32.3898C10.8238 32.6023 11.128 32.7152 11.4767 32.7148C11.8174 32.7148 12.2007 32.607 12.6053 32.3793L27.228 24.132L27.3217 24.2251L27.2268 24.2785L12.6052 32.5254C12.2365 32.7328 11.8859 32.841 11.5691 32.859C11.5384 32.8605 11.5078 32.8613 11.4771 32.8613" fill="url(#paint4_linear_298_2704)"/>
<path d="M10.5131 32.4648C10.22 32.157 10.0469 31.6793 10.0469 31.0598V30.9141C10.0469 31.5331 10.22 32.0112 10.5131 32.3191L10.5879 32.3902L10.5131 32.4648Z" fill="url(#paint5_linear_298_2704)"/>
<path d="M27.3242 24.2246L27.2305 24.1315L32.2533 21.2984C32.8912 20.9387 33.2493 20.4746 33.3092 20.0019C33.3092 20.1753 33.2702 20.3488 33.1927 20.5176C33.0364 20.8578 32.7233 21.1793 32.2533 21.4445L27.3242 24.2246" fill="url(#paint6_linear_298_2704)"/>
<path d="M33.3096 20C33.2497 19.5262 32.8916 19.0625 32.2537 18.7027L27.2305 15.8699L27.3242 15.7768H27.3246L32.2537 18.557C32.957 18.9539 33.3092 19.4769 33.3096 20Z" fill="url(#paint7_linear_298_2704)"/>
<path d="M10.0469 9.08984V8.93704C10.0469 8.88194 10.0484 8.82805 10.0512 8.77574V8.77336C10.0512 8.77264 10.0512 8.77188 10.0515 8.77107V8.76518C10.0818 8.23194 10.2487 7.816 10.5131 7.53825L10.5867 7.61164C10.2487 7.91447 10.0469 8.41948 10.0469 9.08984Z" fill="url(#paint8_linear_298_2704)"/>
<path d="M27.2276 15.8711L12.6053 7.62371C12.1999 7.39563 11.8163 7.28745 11.4747 7.28745C11.1264 7.28745 10.8226 7.39995 10.5854 7.61207L10.5117 7.53864C10.5347 7.51447 10.5586 7.49116 10.5834 7.46875C10.5841 7.46794 10.5854 7.46713 10.5861 7.46637C10.8215 7.25586 11.1221 7.14337 11.4673 7.14135H11.4747C11.8163 7.14135 12.1999 7.24957 12.6053 7.47774L27.3217 15.7777L27.3213 15.7781L27.2276 15.8711Z" fill="url(#paint9_linear_298_2704)"/>
<defs>
<linearGradient id="paint0_linear_298_2704" x1="18.0234" y1="8.70884" x2="7.36394" y2="19.4819" gradientUnits="userSpaceOnUse">
<stop stop-color="#00A0FF"/>
<stop offset="0.00657" stop-color="#00A1FF"/>
<stop offset="0.2601" stop-color="#00BEFF"/>
<stop offset="0.5122" stop-color="#00D2FF"/>
<stop offset="0.7604" stop-color="#00DFFF"/>
<stop offset="1" stop-color="#00E3FF"/>
</linearGradient>
<linearGradient id="paint1_linear_298_2704" x1="34.0834" y1="19.9302" x2="9.70717" y2="19.9302" gradientUnits="userSpaceOnUse">
<stop stop-color="#FFE000"/>
<stop offset="0.4087" stop-color="#FFBD00"/>
<stop offset="0.7754" stop-color="#FFA500"/>
<stop offset="1" stop-color="#FF9C00"/>
</linearGradient>
<linearGradient id="paint2_linear_298_2704" x1="25.0182" y1="23.9286" x2="6.95383" y2="42.0522" gradientUnits="userSpaceOnUse">
<stop stop-color="#FF3A44"/>
<stop offset="1" stop-color="#C31162"/>
</linearGradient>
<linearGradient id="paint3_linear_298_2704" x1="7.36907" y1="5.7737" x2="15.4198" y2="13.8633" gradientUnits="userSpaceOnUse">
<stop stop-color="#32A071"/>
<stop offset="0.0685" stop-color="#2DA771"/>
<stop offset="0.4762" stop-color="#15CF74"/>
<stop offset="0.8009" stop-color="#06E775"/>
<stop offset="1" stop-color="#00F076"/>
</linearGradient>
<linearGradient id="paint4_linear_298_2704" x1="25.0098" y1="26.7942" x2="10.5439" y2="41.4145" gradientUnits="userSpaceOnUse">
<stop stop-color="#CC2E36"/>
<stop offset="1" stop-color="#9C0E4E"/>
</linearGradient>
<linearGradient id="paint5_linear_298_2704" x1="11.7096" y1="8.71037" x2="2.31883" y2="18.2015" gradientUnits="userSpaceOnUse">
<stop stop-color="#008DE0"/>
<stop offset="0.00657" stop-color="#008DE0"/>
<stop offset="0.2601" stop-color="#00A7E0"/>
<stop offset="0.5122" stop-color="#00B8E0"/>
<stop offset="0.7604" stop-color="#00C4E0"/>
<stop offset="1" stop-color="#00C7E0"/>
</linearGradient>
<linearGradient id="paint6_linear_298_2704" x1="34.0864" y1="20.001" x2="9.7101" y2="20.001" gradientUnits="userSpaceOnUse">
<stop stop-color="#E0C500"/>
<stop offset="0.4087" stop-color="#E0A600"/>
<stop offset="0.7754" stop-color="#E09100"/>
<stop offset="1" stop-color="#E08900"/>
</linearGradient>
<linearGradient id="paint7_linear_298_2704" x1="34.0868" y1="20.001" x2="9.71056" y2="20.001" gradientUnits="userSpaceOnUse">
<stop stop-color="#FFE840"/>
<stop offset="0.4087" stop-color="#FFCE40"/>
<stop offset="0.7754" stop-color="#FFBC40"/>
<stop offset="1" stop-color="#FFB540"/>
</linearGradient>
<linearGradient id="paint8_linear_298_2704" x1="11.6993" y1="8.72703" x2="2.65073" y2="17.4759" gradientUnits="userSpaceOnUse">
<stop stop-color="#40B8FF"/>
<stop offset="0.00657" stop-color="#40B9FF"/>
<stop offset="0.2601" stop-color="#40CEFF"/>
<stop offset="0.5122" stop-color="#40DDFF"/>
<stop offset="0.7604" stop-color="#40E7FF"/>
<stop offset="1" stop-color="#40EAFF"/>
</linearGradient>
<linearGradient id="paint9_linear_298_2704" x1="7.35027" y1="8.39541" x2="13.8099" y2="14.9241" gradientUnits="userSpaceOnUse">
<stop stop-color="#65B895"/>
<stop offset="0.0685" stop-color="#62BD95"/>
<stop offset="0.4762" stop-color="#50DB97"/>
<stop offset="0.8009" stop-color="#44ED98"/>
<stop offset="1" stop-color="#40F498"/>
</linearGradient>
</defs>
</svg>
