<svg width="24" height="24" viewBox="0 0 24 24" fill="none" xmlns="http://www.w3.org/2000/svg">
<g clip-path="url(#clip0_298_2581)">
<path d="M17.1231 4.19922C20.0274 4.19922 21.9537 6.0343 23.0158 9.07474C23.7255 11.1064 24 13.4721 24 15.8135C24 19.2205 23.1631 20.5706 20.6096 20.5706C19.3559 20.5706 18.4952 19.7772 16.972 17.8112C15.7533 16.2383 15.2902 15.7492 15.1308 15.7492H8.86923C8.67378 15.7492 8.03443 16.3652 6.83533 17.814L6.81902 17.8337C5.03705 19.987 4.43474 20.5706 3.39038 20.5706C0.836887 20.5706 0 19.2205 0 15.8135C0 13.4721 0.274526 11.1064 0.984243 9.07474C2.04635 6.0343 3.97265 4.19922 6.87692 4.19922H17.1231ZM17.1231 5.99922H6.87692C3.26947 5.99922 1.8 10.2058 1.8 15.8135C1.8 18.353 2.05888 18.7706 3.39038 18.7706C3.58155 18.7706 4.21608 18.1557 5.43231 16.6861L5.44864 16.6664C7.19929 14.5511 7.82403 13.9492 8.86923 13.9492H15.1308C16.1958 13.9492 16.5317 14.3039 18.3949 16.7087C19.5176 18.1578 20.1823 18.7706 20.6096 18.7706C21.9411 18.7706 22.2 18.353 22.2 15.8135C22.2 10.2058 20.7305 5.99922 17.1231 5.99922ZM7.14 7.7135C7.45717 7.7135 7.71429 7.97062 7.71429 8.28779L7.71371 9.4275L8.85429 9.42779C9.17145 9.42779 9.42857 9.68491 9.42857 10.0021V10.5678C9.42857 10.885 9.17145 11.1421 8.85429 11.1421L7.71371 11.1415L7.71429 12.2821C7.71429 12.5992 7.45717 12.8564 7.14 12.8564H6.57429C6.25712 12.8564 6 12.5992 6 12.2821L5.99971 11.1415L4.86 11.1421C4.54283 11.1421 4.28571 10.885 4.28571 10.5678V10.0021C4.28571 9.68491 4.54283 9.42779 4.86 9.42779L5.99971 9.4275L6 8.28779C6 7.97062 6.25712 7.7135 6.57429 7.7135H7.14ZM17.4257 11.1421C17.7429 11.1421 18 11.3992 18 11.7164V12.2821C18 12.5992 17.7429 12.8564 17.4257 12.8564H16.86C16.5428 12.8564 16.2857 12.5992 16.2857 12.2821V11.7164C16.2857 11.3992 16.5428 11.1421 16.86 11.1421H17.4257ZM15.7114 9.42779C16.0286 9.42779 16.2857 9.68491 16.2857 10.0021V10.5678C16.2857 10.885 16.0286 11.1421 15.7114 11.1421H15.1457C14.8285 11.1421 14.5714 10.885 14.5714 10.5678V10.0021C14.5714 9.68491 14.8285 9.42779 15.1457 9.42779H15.7114ZM19.14 9.42779C19.4572 9.42779 19.7143 9.68491 19.7143 10.0021V10.5678C19.7143 10.885 19.4572 11.1421 19.14 11.1421H18.5743C18.2571 11.1421 18 10.885 18 10.5678V10.0021C18 9.68491 18.2571 9.42779 18.5743 9.42779H19.14ZM17.4257 7.7135C17.7429 7.7135 18 7.97062 18 8.28779V8.8535C18 9.17067 17.7429 9.42779 17.4257 9.42779H16.86C16.5428 9.42779 16.2857 9.17067 16.2857 8.8535V8.28779C16.2857 7.97062 16.5428 7.7135 16.86 7.7135H17.4257Z" fill="#FFBA00"/>
</g>
<defs>
<clipPath id="clip0_298_2581">
<rect width="24" height="24" fill="white"/>
</clipPath>
</defs>
</svg>
