<svg width="148" height="40" viewBox="0 0 148 40" fill="none" xmlns="http://www.w3.org/2000/svg">
<g clip-path="url(#clip0_298_2672)">
<path d="M136.214 0.00013H11.7925C11.3389 0.00013 10.8908 0.00013 10.4385 0.00213C10.0598 0.00413 9.68422 0.00994 9.30194 0.01483C8.47145 0.0227318 7.64291 0.0818063 6.82352 0.19154C6.00529 0.303663 5.21269 0.515046 4.47253 0.81854C3.73327 1.1246 3.05779 1.5223 2.47059 1.9972C1.8803 2.47077 1.38826 3.01815 1.01337 3.61829C0.637445 4.21724 0.376778 4.85907 0.240371 5.52161C0.102668 6.18332 0.028568 6.85265 0.0187375 7.52361C0.00725999 7.83021 0.00604793 8.13783 0 8.44447V31.5587C0.00604793 31.8692 0.00725999 32.17 0.0187375 32.4806C0.028571 33.1516 0.102671 33.8209 0.240371 34.4825C0.376401 35.1455 0.637084 35.7877 1.01337 36.3868C1.38809 36.985 1.8802 37.5302 2.47059 38.0011C3.05556 38.4781 3.73148 38.8761 4.47253 39.1798C5.21268 39.4841 6.0052 39.6968 6.82352 39.8106C7.64305 39.9195 8.4715 39.9786 9.30194 39.9874C9.68422 39.9942 10.0598 39.9981 10.4385 39.9981C10.8908 40.0001 11.3389 40.0001 11.7925 40.0001H136.214C136.659 40.0001 137.11 40.0001 137.555 39.9981C137.932 39.9981 138.318 39.9942 138.695 39.9874C139.524 39.9791 140.351 39.92 141.169 39.8106C141.99 39.696 142.785 39.4834 143.529 39.1798C144.269 38.8759 144.944 38.478 145.529 38.0011C146.118 37.5284 146.611 36.9836 146.99 36.3868C147.364 35.7872 147.622 35.1451 147.756 34.4825C147.894 33.8208 147.971 33.1516 147.986 32.4806C147.99 32.17 147.99 31.8692 147.99 31.5587C148 31.1954 148 30.8341 148 30.4649V9.53626C148 9.17005 148 8.80677 147.99 8.44447C147.99 8.13783 147.99 7.83021 147.986 7.52357C147.971 6.85255 147.894 6.18337 147.756 5.52157C147.622 4.85941 147.363 4.21763 146.99 3.61825C146.227 2.41533 145.016 1.43616 143.529 0.81845C142.785 0.515697 141.99 0.30437 141.169 0.19145C140.351 0.0812328 139.524 0.0221378 138.695 0.01469C138.318 0.00981 137.932 0.00395 137.555 0.002C137.11 0 136.659 0 136.214 0V0.00013Z" fill="#A6A6A6"/>
<path d="M10.4429 39.125C10.0661 39.125 9.69837 39.1211 9.3245 39.1143C8.54999 39.1061 7.7773 39.0516 7.01275 38.9512C6.29985 38.8519 5.60924 38.6673 4.9637 38.4033C4.32408 38.1415 3.7407 37.7983 3.2359 37.3867C2.72379 36.98 2.29744 36.5082 1.97374 35.9902C1.64647 35.4688 1.41998 34.9099 1.30216 34.333C1.17492 33.7131 1.10608 33.0863 1.09623 32.458C1.08839 32.2471 1.07812 31.5449 1.07812 31.5449V8.44434C1.07812 8.44434 1.08906 7.75293 1.09629 7.5498C1.10573 6.92248 1.17416 6.29665 1.30102 5.67773C1.41906 5.09925 1.64572 4.53875 1.97317 4.01563C2.29568 3.49794 2.71967 3.02586 3.22869 2.61768C3.73714 2.20562 4.32239 1.8606 4.9631 1.59521C5.60715 1.33209 6.29646 1.14873 7.00792 1.05127C7.77497 0.949836 8.55035 0.894996 9.32754 0.88721L10.4435 0.875H137.547L138.677 0.8877C139.447 0.895099 140.215 0.94945 140.975 1.05029C141.694 1.14898 142.39 1.33362 143.042 1.59814C144.325 2.13299 145.37 2.97916 146.028 4.01807C146.351 4.53758 146.574 5.09351 146.69 5.66699C146.819 6.29099 146.891 6.92174 146.905 7.5542C146.909 7.8374 146.909 8.1416 146.909 8.44434C146.919 8.81934 146.919 9.17627 146.919 9.53613V30.4648C146.919 30.8281 146.919 31.1826 146.909 31.54C146.909 31.8652 146.909 32.1631 146.904 32.4697C146.89 33.0909 146.819 33.7104 146.693 34.3232C146.577 34.9043 146.352 35.4675 146.025 35.9932C145.699 36.5056 145.275 36.9733 144.769 37.3789C144.264 37.7927 143.679 38.1379 143.038 38.4014C142.388 38.6674 141.693 38.8527 140.975 38.9512C140.211 39.0522 139.438 39.1067 138.663 39.1143C138.301 39.1211 137.922 39.125 137.553 39.125L136.213 39.127L10.4429 39.125Z" fill="black"/>
<path d="M27.6477 20.763C27.6598 19.8431 27.9086 18.9411 28.371 18.141C28.8333 17.3409 29.4942 16.6687 30.2922 16.1869C29.7852 15.4758 29.1165 14.8907 28.339 14.4779C27.5616 14.065 26.6968 13.836 25.8135 13.8088C23.9291 13.6146 22.1023 14.9163 21.1421 14.9163C20.1633 14.9163 18.6848 13.8281 17.0928 13.8603C16.0631 13.893 15.0595 14.1871 14.1798 14.714C13.3002 15.2408 12.5745 15.9825 12.0735 16.8668C9.90331 20.5572 11.5221 25.9808 13.601 28.9639C14.6411 30.4246 15.8567 32.0562 17.4473 31.9984C19.0038 31.9349 19.5851 31.0235 21.4639 31.0235C23.3253 31.0235 23.8707 31.9984 25.4936 31.9616C27.1638 31.9349 28.216 30.4944 29.2197 29.0198C29.967 27.979 30.5421 26.8287 30.9236 25.6115C29.9532 25.2084 29.1252 24.5337 28.5426 23.6715C27.9601 22.8093 27.6489 21.7978 27.6477 20.763Z" fill="white"/>
<path d="M24.6662 11.8471C25.6568 10.7734 26.1449 9.39335 26.0267 8C24.5132 8.14352 23.1152 8.7966 22.1112 9.82911C21.6203 10.3335 21.2443 10.9203 21.0048 11.556C20.7652 12.1917 20.6668 12.8638 20.7151 13.5338C21.4721 13.5408 22.221 13.3927 22.9054 13.1005C23.5898 12.8084 24.1918 12.3798 24.6662 11.8471Z" fill="white"/>
<path d="M51.3535 26.9286H46.0601L44.7889 30.3175H42.5469L47.5607 17.7793H49.8901L54.9039 30.3175H52.6236L51.3535 26.9286ZM46.6084 25.3647H50.8042L48.7358 19.8647H48.6779L46.6084 25.3647Z" fill="white"/>
<path d="M65.7326 25.7466C65.7326 28.5874 64.0486 30.4125 61.5073 30.4125C60.8635 30.4429 60.2233 30.309 59.6599 30.0261C59.0965 29.7433 58.6327 29.3229 58.3217 28.8131H58.2736V33.3409H56.1953V21.1755H58.207V22.6959H58.2452C58.5706 22.1886 59.0422 21.7704 59.6099 21.4858C60.1776 21.2012 60.8201 21.0609 61.4691 21.0798C64.0387 21.0798 65.7326 22.9138 65.7326 25.7466ZM63.5964 25.7466C63.5964 23.8959 62.5371 22.6791 60.9208 22.6791C59.3329 22.6791 58.2648 23.9215 58.2648 25.7466C58.2648 27.5885 59.3329 28.822 60.9208 28.822C62.5371 28.822 63.5964 27.6142 63.5964 25.7466Z" fill="white"/>
<path d="M76.8771 25.7466C76.8771 28.5873 75.1931 30.4125 72.6518 30.4125C72.0081 30.4429 71.3678 30.309 70.8044 30.0261C70.241 29.7433 69.7773 29.3229 69.4662 28.8131H69.4181V33.3409H67.3398V21.1754H69.3515V22.6959H69.3897C69.7151 22.1886 70.1867 21.7704 70.7544 21.4858C71.3221 21.2012 71.9646 21.0609 72.6136 21.0798C75.1833 21.0798 76.8771 22.9138 76.8771 25.7466ZM74.741 25.7466C74.741 23.8959 73.6817 22.6791 72.0654 22.6791C70.4775 22.6791 69.4094 23.9215 69.4094 25.7466C69.4094 27.5885 70.4775 28.822 72.0654 28.822C73.6817 28.822 74.741 27.6141 74.741 25.7466H74.741Z" fill="white"/>
<path d="M84.2407 26.8241C84.3947 28.0675 85.7325 28.8839 87.5607 28.8839C89.3124 28.8839 90.5727 28.0675 90.5727 26.9464C90.5727 25.9732 89.8126 25.3904 88.0128 24.9911L86.213 24.5996C83.663 24.0435 82.4792 22.9668 82.4792 21.2196C82.4792 19.0562 84.5673 17.5703 87.5323 17.5703C90.4667 17.5703 92.4784 19.0562 92.5461 21.2196H90.4481C90.3225 19.9683 89.1769 19.213 87.5028 19.213C85.8286 19.213 84.683 19.9772 84.683 21.0894C84.683 21.9758 85.4147 22.4974 87.2046 22.8967L88.7346 23.2359C91.5839 23.8443 92.7677 24.8777 92.7677 26.7116C92.7677 29.0574 90.6982 30.5265 87.4067 30.5265C84.3269 30.5265 82.2476 29.0919 82.1133 26.824L84.2407 26.8241Z" fill="white"/>
<path d="M97.2516 19.0137V21.177H99.177V22.6629H97.2516V27.7024C97.2516 28.4853 97.6371 28.8502 98.4835 28.8502C98.7121 28.8466 98.9403 28.8321 99.1671 28.8068V30.2838C98.7866 30.348 98.3998 30.3771 98.0128 30.3706C95.963 30.3706 95.1635 29.6754 95.1635 27.9026V22.6629H93.6914V21.177H95.1635V19.0137H97.2516Z" fill="white"/>
<path d="M100.293 25.748C100.293 22.8718 102.169 21.0645 105.095 21.0645C108.03 21.0645 109.898 22.8718 109.898 25.748C109.898 28.6321 108.04 30.4316 105.095 30.4316C102.151 30.4316 100.293 28.6321 100.293 25.748ZM107.78 25.748C107.78 23.775 106.779 22.6105 105.095 22.6105C103.411 22.6105 102.411 23.7839 102.411 25.748C102.411 27.7289 103.411 28.8845 105.095 28.8845C106.779 28.8845 107.78 27.7289 107.78 25.748H107.78Z" fill="white"/>
<path d="M111.613 21.1754H113.595V22.7313H113.644C113.778 22.2453 114.093 21.8159 114.536 21.5151C114.98 21.2144 115.525 21.0606 116.079 21.0797C116.318 21.079 116.557 21.1024 116.791 21.1497V22.9048C116.489 22.8214 116.173 22.7831 115.857 22.7914C115.555 22.7804 115.254 22.8285 114.975 22.9323C114.695 23.0362 114.444 23.1935 114.239 23.3933C114.033 23.5931 113.877 23.8307 113.783 24.0899C113.689 24.349 113.657 24.6236 113.692 24.8946V30.3167H111.613L111.613 21.1754Z" fill="white"/>
<path d="M126.371 27.6333C126.092 29.2928 124.302 30.4316 122.012 30.4316C119.066 30.4316 117.238 28.6499 117.238 25.7914C117.238 22.9241 119.076 21.0645 121.924 21.0645C124.726 21.0645 126.487 22.8018 126.487 25.5735V26.2164H119.336V26.3298C119.303 26.6662 119.35 27.0051 119.473 27.324C119.596 27.6429 119.793 27.9345 120.051 28.1794C120.308 28.4243 120.621 28.6169 120.967 28.7444C121.314 28.8719 121.686 28.9315 122.06 28.919C122.551 28.9606 123.044 28.8579 123.465 28.6262C123.886 28.3946 124.214 28.0463 124.398 27.6333L126.371 27.6333ZM119.346 24.905H124.408C124.427 24.6025 124.376 24.2998 124.259 24.0158C124.142 23.7319 123.961 23.4729 123.728 23.255C123.494 23.0372 123.214 22.8652 122.904 22.7499C122.593 22.6346 122.26 22.5784 121.924 22.5849C121.586 22.5831 121.251 22.6418 120.937 22.7576C120.624 22.8735 120.34 23.0442 120.1 23.2599C119.86 23.4756 119.67 23.732 119.541 24.0144C119.411 24.2967 119.345 24.5994 119.346 24.905V24.905Z" fill="white"/>
<path d="M45.1569 10.3361H46.0678C46.2246 10.3537 46.3838 10.3419 46.5353 10.3012C46.6867 10.2605 46.8272 10.192 46.9479 10.0999C47.0686 10.0078 47.1668 9.89407 47.2364 9.76597C47.306 9.63788 47.3455 9.49816 47.3523 9.35562C47.3523 8.78836 46.8795 8.42193 46.0779 8.42193C45.9172 8.40166 45.7537 8.41066 45.5969 8.4484C45.4402 8.48614 45.2934 8.55185 45.1653 8.64165C45.0371 8.73145 44.9302 8.84352 44.8508 8.97125C44.7715 9.09898 44.7212 9.23977 44.7031 9.38532H43.703C43.7202 9.12112 43.7974 8.86294 43.93 8.62687C44.0625 8.3908 44.2474 8.18188 44.4732 8.01313C44.699 7.84438 44.9609 7.7194 45.2425 7.64599C45.5241 7.57257 45.8195 7.55228 46.1102 7.58639C47.4515 7.58639 48.3959 8.26438 48.3959 9.24035C48.3991 9.56731 48.2779 9.88535 48.0527 10.1414C47.8274 10.3974 47.5117 10.5759 47.1583 10.6472V10.7197C47.5773 10.7364 47.9719 10.9023 48.2558 11.181C48.5398 11.4597 48.6899 11.8286 48.6735 12.207C48.6425 12.479 48.5517 12.7427 48.4063 12.9827C48.261 13.2226 48.064 13.4339 47.8271 13.6042C47.5901 13.7745 47.3178 13.9004 47.0263 13.9745C46.7347 14.0486 46.4297 14.0694 46.1292 14.0356C45.828 14.0727 45.5216 14.0547 45.2283 13.9825C44.935 13.9104 44.6607 13.7857 44.422 13.6159C44.1832 13.446 43.9847 13.2345 43.8384 12.9939C43.6921 12.7534 43.6009 12.4887 43.5703 12.2156H44.5861C44.6474 12.804 45.2461 13.1835 46.1292 13.1835C47.0122 13.1835 47.5887 12.7572 47.5887 12.1562C47.5887 11.5467 47.0457 11.1712 46.0968 11.1712H45.1569V10.3361Z" fill="white"/>
<path d="M49.8281 12.5749C49.8281 11.7394 50.5183 11.2577 51.7403 11.1892L53.1329 11.1167V10.7161C53.1329 10.2258 52.775 9.949 52.0804 9.949C51.514 9.949 51.1226 10.1367 51.0089 10.4649H50.0266C50.1303 9.66764 50.9621 9.15625 52.1283 9.15625C53.4172 9.15625 54.1442 9.73558 54.1442 10.7161V13.8876H53.1663V13.2353H53.0861C52.9231 13.4693 52.6943 13.66 52.423 13.7881C52.1517 13.9161 51.8476 13.9769 51.5418 13.9641C51.326 13.9844 51.1079 13.9636 50.9015 13.9031C50.6951 13.8425 50.5051 13.7437 50.3436 13.6128C50.1821 13.4819 50.0529 13.3219 49.9641 13.1432C49.8753 12.9644 49.829 12.7708 49.8281 12.5749ZM53.1329 12.1783V11.7902L51.8774 11.8627C51.1694 11.9055 50.8483 12.1229 50.8483 12.5321C50.8483 12.9499 51.2497 13.193 51.8016 13.193C51.9633 13.2078 52.1267 13.193 52.282 13.1497C52.4373 13.1063 52.5813 13.0351 52.7055 12.9404C52.8297 12.8458 52.9316 12.7295 53.005 12.5986C53.0784 12.4676 53.1219 12.3247 53.1329 12.1783Z" fill="white"/>
<path d="M56.8349 10.0153V13.8859H55.8203V9.24414H59.2054V10.0152L56.8349 10.0153Z" fill="white"/>
<path d="M65.3558 11.5643C65.3558 13.0391 64.5296 13.9637 63.2317 13.9637C62.9131 13.9834 62.595 13.9204 62.3147 13.7823C62.0344 13.6442 61.8036 13.4366 61.6496 13.184H61.5693V15.4304H60.5547V9.24544H61.5314V10.0126H61.6072C61.764 9.75118 61.9978 9.53402 62.2827 9.38506C62.5676 9.2361 62.8926 9.16114 63.2217 9.16846C64.5295 9.16843 65.3558 10.089 65.3558 11.5643ZM64.3121 11.5643C64.3121 10.5838 63.7981 9.99138 62.9385 9.99138C62.0845 9.99138 61.5504 10.5964 61.5504 11.5683C61.5504 12.5358 62.0844 13.1413 62.934 13.1413C63.7981 13.1413 64.3121 12.5488 64.3121 11.5643Z" fill="white"/>
<path d="M66.7077 15.5484V14.7597C66.8175 14.7723 66.9281 14.778 67.0388 14.7768C67.2549 14.7913 67.4694 14.7331 67.641 14.6136C67.8126 14.494 67.9293 14.3215 67.9686 14.129L68.0445 13.903L66.1836 9.24414H67.2885L68.5775 12.9311H68.6577L69.9422 9.24414H71.0181L69.1015 14.0777C68.6622 15.2072 68.1761 15.5696 67.128 15.5696C67.0433 15.5696 66.8024 15.561 66.7077 15.5484Z" fill="white"/>
<path d="M71.8086 12.57H72.8188C72.918 12.9792 73.3428 13.1926 73.9371 13.1926C74.6128 13.1926 75.0275 12.9238 75.0275 12.5061C75.0275 12.0586 74.6551 11.8452 73.9371 11.8452H73.1677V11.1335H73.9237C74.5369 11.1335 74.8491 10.9205 74.8491 10.5325C74.8491 10.1917 74.547 9.9315 73.9237 9.9315C73.3562 9.9315 72.9414 10.1489 72.8756 10.5154H71.8978C71.9709 10.0943 72.2241 9.71599 72.603 9.46175C72.9818 9.20751 73.4561 9.09767 73.9237 9.15586C75.1457 9.15586 75.8448 9.65467 75.8448 10.4389C75.8505 10.6572 75.773 10.8708 75.6253 11.0437C75.4775 11.2167 75.2685 11.3387 75.0331 11.3892V11.4617C75.3133 11.4943 75.5705 11.6187 75.7559 11.8112C75.9413 12.0037 76.042 12.251 76.0388 12.5061C76.0388 13.3885 75.207 13.9723 73.9371 13.9723C72.8143 13.9723 71.9023 13.5077 71.8086 12.57Z" fill="white"/>
<path d="M77.5 13.8859V9.24414H78.5057V12.4368H78.586L80.9553 9.24415H81.961V13.8859H80.9553V10.6762H80.8795L78.5057 13.8859L77.5 13.8859Z" fill="white"/>
<path d="M87.4998 10.0152H85.8808V13.8859H84.8651V10.0152H83.2461V9.24414H87.4998V10.0152Z" fill="white"/>
<path d="M92.9655 12.6324C92.8272 13.0566 92.5283 13.4235 92.1209 13.669C91.7135 13.9144 91.2236 14.0229 90.7367 13.9753C90.3979 13.9834 90.0613 13.9248 89.7502 13.8037C89.4391 13.6825 89.1609 13.5017 88.9349 13.2737C88.709 13.0458 88.5407 12.7762 88.4417 12.4836C88.3427 12.191 88.3154 11.8825 88.3618 11.5795C88.3167 11.2755 88.3444 10.9663 88.4432 10.6728C88.5419 10.3794 88.7093 10.1085 88.9341 9.87857C89.1589 9.64862 89.4357 9.46496 89.746 9.34001C90.0562 9.21507 90.3925 9.15176 90.7322 9.15437C92.1627 9.15437 93.0268 10.0368 93.0268 11.4944V11.814H89.3965V11.8654C89.3804 12.0357 89.404 12.2073 89.4657 12.3689C89.5274 12.5306 89.6259 12.6788 89.7549 12.804C89.8838 12.9293 90.0404 13.0288 90.2144 13.0961C90.3885 13.1635 90.5763 13.1972 90.7656 13.1951C91.0082 13.2213 91.2539 13.1818 91.4715 13.0816C91.6891 12.9814 91.8687 12.825 91.9877 12.6324L92.9655 12.6324ZM89.3964 11.1365H91.9921C92.0049 10.9808 91.9815 10.8244 91.9234 10.6773C91.8653 10.5303 91.7738 10.3958 91.6547 10.2826C91.5357 10.1693 91.3917 10.0798 91.232 10.0198C91.0724 9.9598 90.9006 9.93058 90.7277 9.93406C90.5522 9.9319 90.3779 9.96153 90.2153 10.0212C90.0527 10.0809 89.905 10.1694 89.7809 10.2815C89.6567 10.3936 89.5588 10.527 89.4928 10.6739C89.4268 10.8207 89.394 10.978 89.3965 11.1365H89.3964Z" fill="white"/>
<path d="M97.2695 9.24414H99.5876C100.593 9.24414 101.183 9.70419 101.183 10.4244C101.185 10.653 101.099 10.8751 100.941 11.0536C100.783 11.2321 100.562 11.3561 100.315 11.4049V11.4774C100.615 11.4945 100.896 11.6151 101.101 11.8143C101.305 12.0134 101.417 12.2759 101.414 12.5475C101.414 13.3574 100.739 13.8859 99.611 13.8859H97.2695V9.24414ZM98.2752 9.9473V11.1493H99.2809C99.8942 11.1493 100.187 10.9363 100.187 10.5437C100.187 10.1818 99.9321 9.94729 99.3936 9.94729L98.2752 9.9473ZM98.2752 11.8227V13.1828H99.4783C100.078 13.1828 100.399 12.9437 100.399 12.5048C100.399 12.0402 100.036 11.8227 99.3512 11.8227L98.2752 11.8227Z" fill="white"/>
</g>
<defs>
<clipPath id="clip0_298_2672">
<rect width="148" height="40" fill="white"/>
</clipPath>
</defs>
</svg>
