<svg width="24" height="24" viewBox="0 0 24 24" fill="none" xmlns="http://www.w3.org/2000/svg">
<path fill-rule="evenodd" clip-rule="evenodd" d="M5.00121 4.99925C6.79177 3.20869 9.268 2.09961 12.0016 2.09961C14.7351 2.09961 17.2114 3.20869 19.0019 4.99925C20.7925 6.78981 21.9016 9.26605 21.9016 11.9996C21.9016 14.7332 20.7925 17.2094 19.0019 19C17.2114 20.7905 14.7351 21.8996 12.0016 21.8996C9.268 21.8996 6.79177 20.7905 5.00121 19C3.21064 17.2094 2.10156 14.7332 2.10156 11.9996C2.10156 9.26605 3.21064 6.78981 5.00121 4.99925ZM12.0016 3.89961C9.76456 3.89961 7.74079 4.80525 6.274 6.27204C4.8072 7.73884 3.90156 9.76261 3.90156 11.9996C3.90156 14.2366 4.8072 16.2604 6.274 17.7272C7.74079 19.194 9.76456 20.0996 12.0016 20.0996C14.2386 20.0996 16.2623 19.194 17.7291 17.7272C19.1959 16.2604 20.1016 14.2366 20.1016 11.9996C20.1016 9.76261 19.1959 7.73884 17.7291 6.27204C16.2623 4.80525 14.2386 3.89961 12.0016 3.89961Z" fill="#FFBA00"/>
<path fill-rule="evenodd" clip-rule="evenodd" d="M7.82963 7.82768C8.89634 6.76097 10.3726 6.09961 12.0016 6.09961C13.6306 6.09961 15.1068 6.76097 16.1735 7.82768C17.2402 8.89438 17.9016 10.3706 17.9016 11.9996C17.9016 13.6286 17.2402 15.1048 16.1735 16.1715C15.1068 17.2382 13.6306 17.8996 12.0016 17.8996C10.3726 17.8996 8.89634 17.2382 7.82963 16.1715C6.76293 15.1048 6.10156 13.6286 6.10156 11.9996C6.10156 10.3706 6.76293 8.89438 7.82963 7.82768ZM12.0016 7.89961C10.8691 7.89961 9.84536 8.35753 9.10242 9.10047C8.35949 9.84341 7.90156 10.8672 7.90156 11.9996C7.90156 13.132 8.35949 14.1558 9.10242 14.8987C9.84536 15.6417 10.8691 16.0996 12.0016 16.0996C13.134 16.0996 14.1578 15.6417 14.9007 14.8987C15.6436 14.1558 16.1016 13.132 16.1016 11.9996C16.1016 10.8672 15.6436 9.84341 14.9007 9.10047C14.1578 8.35753 13.134 7.89961 12.0016 7.89961Z" fill="#FFBA00"/>
<path fill-rule="evenodd" clip-rule="evenodd" d="M13.3451 10.6561C13.0022 10.3133 12.526 10.0996 12.0016 10.0996C11.4771 10.0996 11.0009 10.3133 10.6581 10.6561C10.3152 10.999 10.1016 11.4752 10.1016 11.9996C10.1016 12.524 10.3152 13.0003 10.6581 13.3431C11.0009 13.686 11.4771 13.8996 12.0016 13.8996C12.526 13.8996 13.0022 13.686 13.3451 13.3431C13.6879 13.0003 13.9016 12.524 13.9016 11.9996C13.9016 11.4752 13.6879 10.999 13.3451 10.6561Z" fill="#FFBA00"/>
</svg>
