<svg width="24" height="24" viewBox="0 0 24 24" fill="none" xmlns="http://www.w3.org/2000/svg">
<path d="M5.37522 8.39753C5.20121 8.48951 5.01295 8.30126 5.10493 8.12725L6.09677 6.25088L5.10493 4.37451C5.01295 4.2005 5.20121 4.01225 5.37522 4.10423L7.25159 5.09607L9.12796 4.10423C9.30196 4.01225 9.49022 4.2005 9.39824 4.37451L8.4064 6.25088L9.39824 8.12725C9.49022 8.30126 9.30196 8.48951 9.12796 8.39753L7.25159 7.40569L5.37522 8.39753Z" fill="#FFBA00"/>
<path d="M17.2516 6.90569L15.3752 7.89753C15.2012 7.98951 15.013 7.80126 15.1049 7.62725L16.0968 5.75088L15.1049 3.87451C15.013 3.7005 15.2012 3.51225 15.3752 3.60423L17.2516 4.59607L19.128 3.60423C19.302 3.51225 19.4902 3.7005 19.3982 3.87451L18.4064 5.75088L19.3982 7.62725C19.4902 7.80126 19.302 7.98951 19.128 7.89753L17.2516 6.90569Z" fill="#FFBA00"/>
<path d="M15.3752 17.3975C15.2012 17.4895 15.013 17.3013 15.1049 17.1273L16.0968 15.2509L15.1049 13.3745C15.013 13.2005 15.2012 13.0122 15.3752 13.1042L17.2516 14.0961L19.128 13.1042C19.302 13.0122 19.4902 13.2005 19.3982 13.3745L18.4064 15.2509L19.3982 17.1273C19.4902 17.3013 19.302 17.4895 19.128 17.3975L17.2516 16.4057L15.3752 17.3975Z" fill="#FFBA00"/>
<path fill-rule="evenodd" clip-rule="evenodd" d="M13.138 10.3645C13.4894 10.716 13.4894 11.2858 13.138 11.6373L3.63796 21.1373C3.28649 21.4888 2.71664 21.4888 2.36517 21.1373C2.01369 20.7858 2.01369 20.216 2.36517 19.8645L11.8652 10.3645C12.2166 10.013 12.7865 10.013 13.138 10.3645Z" fill="#FFBA00"/>
</svg>
