<svg width="24" height="24" viewBox="0 0 24 24" fill="none" xmlns="http://www.w3.org/2000/svg">
<path d="M12.0016 1.09961C14.763 1.09961 17.0016 3.33819 17.0016 6.09961H17.0557C18.393 6.09961 18.8779 6.23885 19.3668 6.50031C19.8557 6.76177 20.2394 7.14545 20.5009 7.63434C20.7623 8.12323 20.9016 8.60816 20.9016 9.94544V14.834C20.9016 16.923 20.6811 17.6955 20.2671 18.4696C19.8531 19.2437 19.2456 19.8512 18.4716 20.2652C17.6975 20.6791 16.925 20.8996 14.8359 20.8996H9.16721C7.07815 20.8996 6.30563 20.6791 5.53155 20.2652C4.75748 19.8512 4.14998 19.2437 3.736 18.4696C3.32202 17.6955 3.10156 16.923 3.10156 14.834V9.94544C3.10156 8.60816 3.2408 8.12323 3.50226 7.63434C3.76372 7.14545 4.14741 6.76177 4.63629 6.50031C5.12518 6.23885 5.61011 6.09961 6.94739 6.09961H7.00156C7.00156 3.33819 9.24014 1.09961 12.0016 1.09961ZM17.2484 7.90038L6.94739 7.89961C5.9999 7.89961 5.74436 7.94896 5.48517 8.08757C5.30997 8.18127 5.18323 8.30801 5.08953 8.48322C4.95091 8.74241 4.90156 8.99795 4.90156 9.94544V14.834C4.90156 16.469 5.01209 17.0389 5.32327 17.6207C5.56949 18.0811 5.92004 18.4317 6.38043 18.6779C6.96228 18.9891 7.5322 19.0996 9.16721 19.0996H14.8359C16.4709 19.0996 17.0408 18.9891 17.6227 18.6779C18.0831 18.4317 18.4336 18.0811 18.6799 17.6207C18.991 17.0389 19.1016 16.469 19.1016 14.834V9.94544C19.1016 8.99795 19.0522 8.74241 18.9136 8.48322C18.8199 8.30801 18.6932 8.18127 18.518 8.08757C18.2773 7.95886 18.0397 7.90711 17.2484 7.90038ZM15.9476 8.99961C16.1529 8.99961 16.2957 9.03442 16.4179 9.09978C16.5401 9.16515 16.636 9.26107 16.7014 9.38329C16.7668 9.50551 16.8016 9.64824 16.8016 9.8536V9.94562C16.8016 10.151 16.7668 10.2937 16.7014 10.4159C16.636 10.5381 16.5401 10.6341 16.4179 10.6994C16.2957 10.7648 16.1529 10.7996 15.9476 10.7996H15.8555C15.6502 10.7996 15.5075 10.7648 15.3852 10.6994C15.263 10.6341 15.1671 10.5381 15.1017 10.4159C15.0364 10.2937 15.0016 10.151 15.0016 9.94562V9.8536C15.0016 9.64824 15.0364 9.50551 15.1017 9.38329C15.1671 9.26107 15.263 9.16515 15.3852 9.09978C15.5075 9.03442 15.6502 8.99961 15.8555 8.99961H15.9476ZM7.94757 8.99961C8.15293 8.99961 8.29566 9.03442 8.41788 9.09978C8.5401 9.16515 8.63602 9.26107 8.70139 9.38329C8.76675 9.50551 8.80156 9.64824 8.80156 9.8536V9.94562C8.80156 10.151 8.76675 10.2937 8.70139 10.4159C8.63602 10.5381 8.5401 10.6341 8.41788 10.6994C8.29566 10.7648 8.15293 10.7996 7.94757 10.7996H7.85555C7.65019 10.7996 7.50747 10.7648 7.38525 10.6994C7.26302 10.6341 7.1671 10.5381 7.10174 10.4159C7.03637 10.2937 7.00156 10.151 7.00156 9.94562V9.8536C7.00156 9.64824 7.03637 9.50551 7.10174 9.38329C7.1671 9.26107 7.26302 9.16515 7.38525 9.09978C7.50747 9.03442 7.65019 8.99961 7.85555 8.99961H7.94757ZM12.0016 2.89961C10.2343 2.89961 8.80156 4.3323 8.80156 6.09961H15.2016C15.2016 4.3323 13.7689 2.89961 12.0016 2.89961Z" fill="#FFBA00"/>
</svg>
