<svg width="24" height="24" viewBox="0 0 24 24" fill="none" xmlns="http://www.w3.org/2000/svg">
<path d="M14.2986 1.43393C15.031 1.60487 15.6757 1.97711 16.1899 2.52587C16.7112 3.08218 17.0145 3.67158 17.341 4.82375L18.1318 7.76814C18.2747 8.30161 17.9581 8.84994 17.4247 8.99289C16.8912 9.13583 16.3429 8.81925 16.1999 8.28578L15.4795 5.59709L15.3669 5.19479C15.1519 4.46621 14.9903 4.17068 14.7305 3.89339C14.4866 3.63304 14.1915 3.46268 13.844 3.38158C13.474 3.29521 13.1373 3.30306 12.3988 3.48119L11.9941 3.58479L6.86662 4.95869C6.01264 5.18751 5.61288 5.3533 5.3578 5.54188L5.29687 5.58955L5.16292 5.70767C4.90257 5.95163 4.73221 6.24671 4.65111 6.59416C4.55754 6.99505 4.57456 7.35682 4.79884 8.23262L7.52232 18.4012L7.63495 18.8035C7.84992 19.5321 8.01147 19.8276 8.2713 20.1049C8.51525 20.3652 8.81034 20.5356 9.15779 20.6167C9.559 20.7104 9.9031 20.6931 10.7651 20.4766C11.3008 20.342 11.8441 20.6672 11.9786 21.2028C12.1131 21.7385 11.788 22.2818 11.2523 22.4163C10.1035 22.7048 9.44656 22.7379 8.70319 22.5644C7.97084 22.3934 7.3261 22.0212 6.81188 21.4724C6.29061 20.9161 5.98731 20.3267 5.66086 19.1745L2.92247 8.96174C2.56784 7.63824 2.5178 6.935 2.70346 6.13956C2.8554 5.48858 3.1664 4.90683 3.63359 4.4112L3.8161 4.2294L3.99494 4.07167C4.49063 3.66003 5.07218 3.38731 6.08626 3.09926L6.34899 3.02684L11.4765 1.65294C12.8 1.29831 13.5032 1.24826 14.2986 1.43393ZM18.3693 10.9991C20.3695 10.9991 22.0009 12.5907 22.0009 14.5664C22.0009 16.4754 21.2293 17.4175 18.221 19.7001L16.8932 20.7075C16.3657 21.1078 15.6361 21.1078 15.1086 20.7075L13.7808 19.7001C10.7725 17.4175 10.0009 16.4754 10.0009 14.5664C10.0009 12.5907 11.6323 10.9991 13.6325 10.9991C14.4617 10.9991 15.2284 11.2228 15.9149 11.6588L16.0009 11.7161L16.0869 11.6588C16.7048 11.2664 17.3876 11.046 18.1225 11.0058L18.3693 10.9991Z" fill="#FFBA00"/>
</svg>
