<svg width="24" height="24" viewBox="0 0 24 24" fill="none" xmlns="http://www.w3.org/2000/svg">
<path fill-rule="evenodd" clip-rule="evenodd" d="M11.1816 3.89961H12.8216C13.9154 3.89961 14.6275 3.90101 15.1708 3.9454C15.6932 3.98808 15.8991 4.06135 16.0095 4.1176C16.3859 4.30934 16.6918 4.6153 16.8836 4.99163C16.9398 5.10202 17.0131 5.30801 17.0558 5.83035C17.1002 6.37371 17.1016 7.08581 17.1016 8.17961V15.8196C17.1016 16.9134 17.1002 17.6255 17.0558 18.1689C17.0131 18.6912 16.9398 18.8972 16.8836 19.0076C16.6918 19.3839 16.3859 19.6899 16.0095 19.8816C15.8991 19.9379 15.6932 20.0112 15.1708 20.0538C14.6275 20.0982 13.9154 20.0996 12.8216 20.0996H11.1816C10.0878 20.0996 9.37567 20.0982 8.83231 20.0538C8.30996 20.0112 8.10397 19.9379 7.99358 19.8816C7.61726 19.6899 7.3113 19.3839 7.11955 19.0076C7.0633 18.8972 6.99003 18.6912 6.94736 18.1689C6.90296 17.6255 6.90156 16.9134 6.90156 15.8196V8.17961C6.90156 7.08581 6.90296 6.37371 6.94736 5.83035C6.99003 5.30801 7.0633 5.10202 7.11955 4.99163C7.3113 4.6153 7.61726 4.30934 7.99358 4.1176C8.10397 4.06135 8.30996 3.98808 8.83231 3.9454C9.37567 3.90101 10.0878 3.89961 11.1816 3.89961ZM5.10156 8.17961C5.10156 6.05141 5.10156 4.98731 5.51574 4.17445C5.88006 3.45943 6.46138 2.8781 7.1764 2.51378C7.98926 2.09961 9.05336 2.09961 11.1816 2.09961H12.8216C14.9498 2.09961 16.0139 2.09961 16.8267 2.51378C17.5417 2.8781 18.1231 3.45943 18.4874 4.17445C18.9016 4.98731 18.9016 6.05141 18.9016 8.17961V15.8196C18.9016 17.9478 18.9016 19.0119 18.4874 19.8248C18.1231 20.5398 17.5417 21.1211 16.8267 21.4855C16.0139 21.8996 14.9498 21.8996 12.8216 21.8996H11.1816C9.05336 21.8996 7.98926 21.8996 7.1764 21.4855C6.46138 21.1211 5.88006 20.5398 5.51574 19.8248C5.10156 19.0119 5.10156 17.9478 5.10156 15.8196V8.17961ZM11.2516 16.1996C10.7545 16.1996 10.3516 16.6026 10.3516 17.0996C10.3516 17.5967 10.7545 17.9996 11.2516 17.9996H12.7516C13.2486 17.9996 13.6516 17.5967 13.6516 17.0996C13.6516 16.6026 13.2486 16.1996 12.7516 16.1996H11.2516Z" fill="#98A2B3"/>
</svg>
