<svg width="24" height="24" viewBox="0 0 24 24" fill="none" xmlns="http://www.w3.org/2000/svg">
<path fill-rule="evenodd" clip-rule="evenodd" d="M12.0015 15.6369L15.3016 13.7317C16.6349 12.9619 16.6349 11.0374 15.3016 10.2676L12.0015 8.3623C10.6682 7.5925 9.00153 8.55476 9.00153 10.0944L9.00153 13.9049C9.00153 15.4445 10.6682 16.4068 12.0015 15.6369ZM14.4016 11.8264C14.5349 11.9034 14.5349 12.0959 14.4016 12.1728L11.1015 14.0781C10.9682 14.1551 10.8015 14.0589 10.8015 13.9049V10.0944C10.8015 9.94039 10.9682 9.84417 11.1015 9.92115L14.4016 11.8264Z" fill="#FFBA00"/>
<path fill-rule="evenodd" clip-rule="evenodd" d="M5.00121 4.99925C6.79177 3.20869 9.268 2.09961 12.0016 2.09961C14.7351 2.09961 17.2114 3.20869 19.0019 4.99925C20.7925 6.78981 21.9016 9.26605 21.9016 11.9996C21.9016 14.7332 20.7925 17.2094 19.0019 19C17.2114 20.7905 14.7351 21.8996 12.0016 21.8996C9.268 21.8996 6.79177 20.7905 5.00121 19C3.21064 17.2094 2.10156 14.7332 2.10156 11.9996C2.10156 9.26605 3.21064 6.78981 5.00121 4.99925ZM12.0016 3.89961C9.76456 3.89961 7.74079 4.80525 6.274 6.27204C4.8072 7.73884 3.90156 9.76261 3.90156 11.9996C3.90156 14.2366 4.8072 16.2604 6.274 17.7272C7.74079 19.194 9.76456 20.0996 12.0016 20.0996C14.2386 20.0996 16.2623 19.194 17.7291 17.7272C19.1959 16.2604 20.1016 14.2366 20.1016 11.9996C20.1016 9.76261 19.1959 7.73884 17.7291 6.27204C16.2623 4.80525 14.2386 3.89961 12.0016 3.89961Z" fill="#FFBA00"/>
</svg>
