<svg width="24" height="24" viewBox="0 0 24 24" fill="none" xmlns="http://www.w3.org/2000/svg">
<path d="M7.25156 15.7496H8.25156C8.66577 15.7496 9.00156 16.0854 9.00156 16.4996V17.4996C9.00156 17.9138 8.66577 18.2496 8.25156 18.2496H7.25156C6.83734 18.2496 6.50156 17.9138 6.50156 17.4996V16.4996C6.50156 16.0854 6.83734 15.7496 7.25156 15.7496Z" fill="#FFBA00"/>
<path d="M15.7516 15.7496H16.7516C17.1658 15.7496 17.5016 16.0854 17.5016 16.4996V17.4996C17.5016 17.9138 17.1658 18.2496 16.7516 18.2496H15.7516C15.3373 18.2496 15.0016 17.9138 15.0016 17.4996V16.4996C15.0016 16.0854 15.3373 15.7496 15.7516 15.7496Z" fill="#FFBA00"/>
<path d="M7.25156 10.7496H8.25156C8.66577 10.7496 9.00156 11.0854 9.00156 11.4996V12.4996C9.00156 12.9138 8.66577 13.2496 8.25156 13.2496H7.25156C6.83734 13.2496 6.50156 12.9138 6.50156 12.4996V11.4996C6.50156 11.0854 6.83734 10.7496 7.25156 10.7496Z" fill="#FFBA00"/>
<path d="M15.7516 10.7496H16.7516C17.1658 10.7496 17.5016 11.0854 17.5016 11.4996V12.4996C17.5016 12.9138 17.1658 13.2496 16.7516 13.2496H15.7516C15.3373 13.2496 15.0016 12.9138 15.0016 12.4996V11.4996C15.0016 11.0854 15.3373 10.7496 15.7516 10.7496Z" fill="#FFBA00"/>
<path d="M7.25156 5.74963H8.25156C8.66577 5.74963 9.00156 6.08542 9.00156 6.49963V7.49963C9.00156 7.91385 8.66577 8.24963 8.25156 8.24963H7.25156C6.83734 8.24963 6.50156 7.91385 6.50156 7.49963V6.49963C6.50156 6.08542 6.83734 5.74963 7.25156 5.74963Z" fill="#FFBA00"/>
<path d="M15.7516 5.74963H16.7516C17.1658 5.74963 17.5016 6.08542 17.5016 6.49963V7.49963C17.5016 7.91385 17.1658 8.24963 16.7516 8.24963H15.7516C15.3373 8.24963 15.0016 7.91385 15.0016 7.49963V6.49963C15.0016 6.08542 15.3373 5.74963 15.7516 5.74963Z" fill="#FFBA00"/>
<path fill-rule="evenodd" clip-rule="evenodd" d="M9.46287 2.09961H14.5403C15.5575 2.0996 16.3757 2.09959 17.0378 2.15369C17.7188 2.20933 18.3135 2.32665 18.8626 2.60643C19.7376 3.05224 20.4489 3.7636 20.8947 4.63855C21.1745 5.18766 21.2918 5.78235 21.3475 6.46333C21.4016 7.12542 21.4016 7.94364 21.4016 8.96091V15.0383C21.4016 16.0556 21.4016 16.8738 21.3475 17.5359C21.2918 18.2169 21.1745 18.8116 20.8947 19.3607C20.4489 20.2356 19.7376 20.947 18.8626 21.3928C18.3135 21.6726 17.7188 21.7899 17.0378 21.8455C16.3757 21.8996 15.5575 21.8996 14.5403 21.8996H9.46287C8.44559 21.8996 7.62738 21.8996 6.96528 21.8455C6.2843 21.7899 5.68961 21.6726 5.14051 21.3928C4.26555 20.947 3.55419 20.2356 3.10838 19.3607C2.8286 18.8116 2.71128 18.2169 2.65564 17.5359C2.60155 16.8738 2.60155 16.0556 2.60156 15.0383V8.96091C2.60155 7.94364 2.60155 7.12542 2.65564 6.46333C2.71128 5.78235 2.8286 5.18766 3.10838 4.63855C3.55419 3.7636 4.26555 3.05224 5.14051 2.60643C5.68961 2.32665 6.2843 2.20933 6.96528 2.15369C7.62737 2.09959 8.4456 2.0996 9.46287 2.09961ZM7.11186 3.94771C6.5422 3.99426 6.21075 4.0813 5.95769 4.21024C5.42143 4.48348 4.98543 4.91948 4.71219 5.45574C4.58325 5.7088 4.49621 6.04024 4.44967 6.60991C4.40226 7.19008 4.40156 7.93466 4.40156 8.99961V14.9996C4.40156 16.0646 4.40226 16.8091 4.44967 17.3893C4.49621 17.959 4.58325 18.2904 4.71219 18.5435C4.98543 19.0797 5.42143 19.5157 5.95769 19.789C6.21075 19.9179 6.5422 20.005 7.11186 20.0515C7.69203 20.0989 8.43661 20.0996 9.50156 20.0996H14.5016C15.5665 20.0996 16.3111 20.0989 16.8913 20.0515C17.4609 20.005 17.7924 19.9179 18.0454 19.789C18.5817 19.5157 19.0177 19.0797 19.2909 18.5435C19.4199 18.2904 19.5069 17.959 19.5535 17.3893C19.6009 16.8091 19.6016 16.0646 19.6016 14.9996V8.99961C19.6016 7.93466 19.6009 7.19008 19.5535 6.60991C19.5069 6.04024 19.4199 5.7088 19.2909 5.45574C19.0177 4.91948 18.5817 4.48348 18.0454 4.21024C17.7924 4.0813 17.4609 3.99426 16.8913 3.94771C16.3111 3.90031 15.5665 3.89961 14.5016 3.89961H9.50156C8.43661 3.89961 7.69203 3.90031 7.11186 3.94771Z" fill="#FFBA00"/>
</svg>
